<svg width="24" height="24" viewBox="0 0 24 24" fill="none" xmlns="http://www.w3.org/2000/svg">
<path d="M3.10862 18.1238C3.5815 14.8609 4.44203 11.6152 5.33418 8.44606C5.50027 7.85606 5.66901 7.26737 5.79363 6.66691C5.81795 6.54975 5.80666 6.62315 5.80666 6.68646" stroke="black" stroke-width="0.5" stroke-linecap="round"/>
<path d="M5.98262 6.74511C6.67539 9.0174 7.36576 11.2965 8.12998 13.5456C8.39561 14.3274 8.84492 15.2705 9.02933 16.1003C9.04422 16.1673 9.03423 16.1598 9.09124 16.1883" stroke="black" stroke-width="0.5" stroke-linecap="round"/>
<path d="M3.92976 13.3143C4.92107 13.2671 5.89489 13.0087 6.89175 12.9689C7.34917 12.9506 7.81297 12.9037 8.2701 12.9037" stroke="black" stroke-width="0.5" stroke-linecap="round"/>
<path d="M9.50181 7.3903C9.50181 7.60303 9.56373 7.77482 9.62238 7.98009C9.86667 8.83513 9.94182 9.76899 10.0492 10.6488C10.1254 11.273 10.2499 11.9031 10.3132 12.5257C10.3548 12.9345 10.3136 13.3534 10.3262 13.7639C10.3554 14.7118 10.5576 15.6563 10.5576 16.5988" stroke="black" stroke-width="0.5" stroke-linecap="round"/>
<path d="M10.5576 13.6075C11.3842 13.4804 12.0182 13.4095 12.7277 13.9464C12.9045 14.0802 13.3143 14.3456 13.3143 14.5721C13.3143 14.789 13.4953 15.0059 13.5489 15.2172C13.6086 15.4527 13.6676 15.6401 13.6206 15.8755C13.5455 16.251 13.3824 16.3485 13.1122 16.5695C12.6393 16.9564 12.0096 17.244 11.3787 17.244C11.1373 17.244 10.9151 17.3664 10.7009 17.244C10.6106 17.1924 10.6006 17.085 10.525 17.0094C10.4938 16.9783 10.3778 16.8921 10.4403 16.8921" stroke="black" stroke-width="0.5" stroke-linecap="round"/>
<path d="M15.0152 14.6046C15.0533 15.7089 15.4258 16.7748 15.4258 17.8892" stroke="black" stroke-width="0.5" stroke-linecap="round"/>
<path d="M14.1354 12.4931C14.1354 12.8425 13.8734 13.4259 14.2527 13.5945C14.429 13.6728 15.3565 13.5128 15.4225 13.2817C15.4688 13.1198 15.2657 12.5518 15.1032 12.5518C14.8393 12.5518 14.5753 12.5518 14.3114 12.5518" stroke="black" stroke-width="0.5" stroke-linecap="round"/>
<path d="M17.3027 12.4931C17.8361 12.4398 18.5217 12.0109 18.8537 11.584C19.127 11.2327 18.5516 10.2077 18.2933 9.96778C18.1418 9.82711 17.9784 9.6129 17.7687 9.56047C17.6103 9.52088 17.3041 9.18687 17.1267 9.28023C16.8593 9.42098 16.865 9.87973 16.8269 10.1177C16.7681 10.4851 16.6736 10.8521 16.6119 11.2223C16.519 11.7793 16.4789 12.6584 16.8009 13.1644C16.8626 13.2614 16.8386 13.3786 16.9508 13.4446C17.1205 13.5445 17.2846 13.6564 17.4591 13.7574C18.0643 14.1078 19.0425 13.9607 19.6488 13.6662C19.8998 13.5443 20.0643 13.3118 20.294 13.197" stroke="black" stroke-width="0.5" stroke-linecap="round"/>
</svg>
